<svg width="37" height="34" viewBox="0 0 37 34" fill="none" xmlns="http://www.w3.org/2000/svg">
<rect x="0.643555" width="36.0407" height="34" rx="17" fill="white"/>
<mask id="mask0_754_14101" style="mask-type:alpha" maskUnits="userSpaceOnUse" x="5" y="5" width="25" height="24">
<rect x="5.64355" y="5" width="24" height="24" fill="#D9D9D9"/>
</mask>
<g mask="url(#mask0_754_14101)">
<path d="M17.6436 27C16.2602 27 14.9602 26.7375 13.7436 26.2125C12.5269 25.6875 11.4686 24.975 10.5686 24.075C9.66855 23.175 8.95605 22.1167 8.43105 20.9C7.90605 19.6833 7.64355 18.3833 7.64355 17C7.64355 15.6167 7.90605 14.3167 8.43105 13.1C8.95605 11.8833 9.66855 10.825 10.5686 9.925C11.4686 9.025 12.5269 8.3125 13.7436 7.7875C14.9602 7.2625 16.2602 7 17.6436 7C18.3936 7 19.1227 7.07917 19.8311 7.2375C20.5394 7.39583 21.2102 7.625 21.8436 7.925C21.7769 8.09167 21.7269 8.26667 21.6936 8.45C21.6602 8.63333 21.6436 8.81667 21.6436 9C21.6436 9.23333 21.6686 9.45417 21.7186 9.6625C21.7686 9.87083 21.8352 10.0667 21.9186 10.25C21.3019 9.86667 20.6352 9.5625 19.9186 9.3375C19.2019 9.1125 18.4436 9 17.6436 9C15.4269 9 13.5394 9.77917 11.9811 11.3375C10.4227 12.8958 9.64355 14.7833 9.64355 17C9.64355 19.2167 10.4227 21.1042 11.9811 22.6625C13.5394 24.2208 15.4269 25 17.6436 25C19.8602 25 21.7477 24.2208 23.3061 22.6625C24.8644 21.1042 25.6436 19.2167 25.6436 17C25.6436 16.3333 25.5644 15.6917 25.4061 15.075C25.2477 14.4583 25.0269 13.875 24.7436 13.325C25.0102 13.5417 25.3019 13.7083 25.6186 13.825C25.9352 13.9417 26.2769 14 26.6436 14C26.7269 14 26.8144 13.9958 26.9061 13.9875C26.9977 13.9792 27.0852 13.9667 27.1686 13.95C27.3186 14.4333 27.4352 14.9292 27.5186 15.4375C27.6019 15.9458 27.6436 16.4667 27.6436 17C27.6436 18.3833 27.3811 19.6833 26.8561 20.9C26.3311 22.1167 25.6186 23.175 24.7186 24.075C23.8186 24.975 22.7602 25.6875 21.5436 26.2125C20.3269 26.7375 19.0269 27 17.6436 27ZM21.1436 16C21.5769 16 21.9352 15.8583 22.2186 15.575C22.5019 15.2917 22.6436 14.9333 22.6436 14.5C22.6436 14.0667 22.5019 13.7083 22.2186 13.425C21.9352 13.1417 21.5769 13 21.1436 13C20.7102 13 20.3519 13.1417 20.0686 13.425C19.7852 13.7083 19.6436 14.0667 19.6436 14.5C19.6436 14.9333 19.7852 15.2917 20.0686 15.575C20.3519 15.8583 20.7102 16 21.1436 16ZM14.1436 16C14.5769 16 14.9352 15.8583 15.2186 15.575C15.5019 15.2917 15.6436 14.9333 15.6436 14.5C15.6436 14.0667 15.5019 13.7083 15.2186 13.425C14.9352 13.1417 14.5769 13 14.1436 13C13.7102 13 13.3519 13.1417 13.0686 13.425C12.7852 13.7083 12.6436 14.0667 12.6436 14.5C12.6436 14.9333 12.7852 15.2917 13.0686 15.575C13.3519 15.8583 13.7102 16 14.1436 16ZM17.6436 22.5C18.8269 22.5 19.8727 22.175 20.7811 21.525C21.6894 20.875 22.3436 20.0333 22.7436 19H12.5436C12.9436 20.0333 13.5977 20.875 14.5061 21.525C15.4144 22.175 16.4602 22.5 17.6436 22.5ZM25.6436 10H24.6436C24.3602 10 24.1227 9.90417 23.9311 9.7125C23.7394 9.52083 23.6436 9.28333 23.6436 9C23.6436 8.71667 23.7394 8.47917 23.9311 8.2875C24.1227 8.09583 24.3602 8 24.6436 8H25.6436V7C25.6436 6.71667 25.7394 6.47917 25.9311 6.2875C26.1227 6.09583 26.3602 6 26.6436 6C26.9269 6 27.1644 6.09583 27.3561 6.2875C27.5477 6.47917 27.6436 6.71667 27.6436 7V8H28.6436C28.9269 8 29.1644 8.09583 29.3561 8.2875C29.5477 8.47917 29.6436 8.71667 29.6436 9C29.6436 9.28333 29.5477 9.52083 29.3561 9.7125C29.1644 9.90417 28.9269 10 28.6436 10H27.6436V11C27.6436 11.2833 27.5477 11.5208 27.3561 11.7125C27.1644 11.9042 26.9269 12 26.6436 12C26.3602 12 26.1227 11.9042 25.9311 11.7125C25.7394 11.5208 25.6436 11.2833 25.6436 11V10Z" fill="black"/>
</g>
</svg>
