<svg width="24" height="24" viewBox="0 0 24 24" fill="none" xmlns="http://www.w3.org/2000/svg">
<mask id="mask0_210_1616" style="mask-type:alpha" maskUnits="userSpaceOnUse" x="0" y="0" width="24" height="24">
<rect width="24" height="24" fill="#D9D9D9"/>
</mask>
<g mask="url(#mask0_210_1616)">
<path d="M6.60019 13.9499H17.4002C17.6835 13.9499 17.9212 13.8539 18.1132 13.6619C18.3045 13.4706 18.4002 13.2332 18.4002 12.9499C18.4002 12.6666 18.3045 12.4289 18.1132 12.2369C17.9212 12.0456 17.6835 11.9499 17.4002 11.9499H6.60019C6.31686 11.9499 6.07953 12.0456 5.8882 12.2369C5.6962 12.4289 5.60019 12.6666 5.60019 12.9499C5.60019 13.2332 5.6962 13.4706 5.8882 13.6619C6.07953 13.8539 6.31686 13.9499 6.60019 13.9499ZM6.60019 10.5999H17.4002C17.6835 10.5999 17.9212 10.5039 18.1132 10.3119C18.3045 10.1206 18.4002 9.88324 18.4002 9.5999C18.4002 9.31657 18.3045 9.0789 18.1132 8.8869C17.9212 8.69557 17.6835 8.5999 17.4002 8.5999H6.60019C6.31686 8.5999 6.07953 8.69557 5.8882 8.8869C5.6962 9.0789 5.60019 9.31657 5.60019 9.5999C5.60019 9.88324 5.6962 10.1206 5.8882 10.3119C6.07953 10.5039 6.31686 10.5999 6.60019 10.5999ZM6.60019 7.2499H17.4002C17.6835 7.2499 17.9212 7.15424 18.1132 6.9629C18.3045 6.7709 18.4002 6.53324 18.4002 6.2499C18.4002 5.96657 18.3045 5.7289 18.1132 5.5369C17.9212 5.34557 17.6835 5.2499 17.4002 5.2499H6.60019C6.31686 5.2499 6.07953 5.34557 5.8882 5.5369C5.6962 5.7289 5.60019 5.96657 5.60019 6.2499C5.60019 6.53324 5.6962 6.7709 5.8882 6.9629C6.07953 7.15424 6.31686 7.2499 6.60019 7.2499ZM20.5752 20.8249L18.1502 18.3999H3.8502C3.11686 18.3999 2.49186 18.1416 1.9752 17.6249C1.45853 17.1082 1.2002 16.4832 1.2002 15.7499V3.5499C1.2002 2.81657 1.45853 2.19157 1.9752 1.6749C2.49186 1.15824 3.11686 0.899902 3.8502 0.899902H20.1502C20.8835 0.899902 21.5085 1.15824 22.0252 1.6749C22.5419 2.19157 22.8002 2.81657 22.8002 3.5499V19.8999C22.8002 20.4832 22.5335 20.8872 22.0002 21.1119C21.4669 21.3372 20.9919 21.2416 20.5752 20.8249ZM3.8502 3.5499V15.7499H19.2502L20.1502 16.6499V3.5499H3.8502Z" fill="#535AF1"/>
</g>
</svg>
