<svg width="6" height="20" viewBox="0 0 6 20" fill="none" xmlns="http://www.w3.org/2000/svg">
<path d="M2.99593 19.25C2.34858 19.25 1.79574 19.0195 1.3374 18.5585C0.879069 18.0975 0.649902 17.5434 0.649902 16.896C0.649902 16.2487 0.880394 15.6958 1.34138 15.2375C1.80238 14.7792 2.35654 14.55 3.00388 14.55C3.65123 14.55 4.20407 14.7805 4.6624 15.2415C5.12074 15.7025 5.3499 16.2566 5.3499 16.904C5.3499 17.5513 5.11941 18.1042 4.65843 18.5625C4.19743 19.0208 3.64326 19.25 2.99593 19.25ZM2.99593 12.35C2.34858 12.35 1.79574 12.1195 1.3374 11.6585C0.879069 11.1975 0.649902 10.6434 0.649902 9.99603C0.649902 9.34867 0.880394 8.79583 1.34138 8.3375C1.80238 7.87917 2.35654 7.65 3.00388 7.65C3.65123 7.65 4.20407 7.88049 4.6624 8.34148C5.12074 8.80247 5.3499 9.35664 5.3499 10.004C5.3499 10.6513 5.11941 11.2042 4.65843 11.6625C4.19743 12.1208 3.64326 12.35 2.99593 12.35ZM2.99593 5.45C2.34858 5.45 1.79574 5.21951 1.3374 4.75853C0.879069 4.29753 0.649902 3.74336 0.649902 3.09603C0.649902 2.44868 0.880394 1.89583 1.34138 1.4375C1.80238 0.979167 2.35654 0.75 3.00388 0.75C3.65123 0.75 4.20407 0.980492 4.6624 1.44147C5.12074 1.90247 5.3499 2.45664 5.3499 3.10398C5.3499 3.75133 5.11941 4.30417 4.65843 4.7625C4.19743 5.22083 3.64326 5.45 2.99593 5.45Z" fill="#535AF1"/>
</svg>
