<svg width="40" height="40" viewBox="0 0 40 40" fill="none" xmlns="http://www.w3.org/2000/svg">
<rect width="40" height="40" rx="20" fill="#ECEEFE"/>
<mask id="mask0_1823_21708" style="mask-type:alpha" maskUnits="userSpaceOnUse" x="8" y="8" width="24" height="24">
<rect x="8" y="8" width="24" height="24" fill="#D9D9D9"/>
</mask>
<g mask="url(#mask0_1823_21708)">
<path d="M14.6 21.95H25.4C25.6833 21.95 25.921 21.854 26.113 21.662C26.3043 21.4707 26.4 21.2334 26.4 20.95C26.4 20.6667 26.3043 20.429 26.113 20.237C25.921 20.0457 25.6833 19.95 25.4 19.95H14.6C14.3166 19.95 14.0793 20.0457 13.888 20.237C13.696 20.429 13.6 20.6667 13.6 20.95C13.6 21.2334 13.696 21.4707 13.888 21.662C14.0793 21.854 14.3166 21.95 14.6 21.95ZM14.6 18.6H25.4C25.6833 18.6 25.921 18.504 26.113 18.312C26.3043 18.1207 26.4 17.8834 26.4 17.6C26.4 17.3167 26.3043 17.079 26.113 16.887C25.921 16.6957 25.6833 16.6 25.4 16.6H14.6C14.3166 16.6 14.0793 16.6957 13.888 16.887C13.696 17.079 13.6 17.3167 13.6 17.6C13.6 17.8834 13.696 18.1207 13.888 18.312C14.0793 18.504 14.3166 18.6 14.6 18.6ZM14.6 15.25H25.4C25.6833 15.25 25.921 15.1544 26.113 14.963C26.3043 14.771 26.4 14.5334 26.4 14.25C26.4 13.9667 26.3043 13.729 26.113 13.537C25.921 13.3457 25.6833 13.25 25.4 13.25H14.6C14.3166 13.25 14.0793 13.3457 13.888 13.537C13.696 13.729 13.6 13.9667 13.6 14.25C13.6 14.5334 13.696 14.771 13.888 14.963C14.0793 15.1544 14.3166 15.25 14.6 15.25ZM28.575 28.825L26.15 26.4H11.85C11.1166 26.4 10.4916 26.1417 9.97495 25.625C9.45828 25.1084 9.19995 24.4834 9.19995 23.75V11.55C9.19995 10.8167 9.45828 10.1917 9.97495 9.67502C10.4916 9.15836 11.1166 8.90002 11.85 8.90002H28.15C28.8833 8.90002 29.5083 9.15836 30.025 9.67502C30.5416 10.1917 30.7999 10.8167 30.7999 11.55V27.9C30.7999 28.4834 30.5333 28.8874 30 29.112C29.4666 29.3374 28.9916 29.2417 28.575 28.825ZM11.85 11.55V23.75H27.25L28.15 24.65V11.55H11.85Z" fill="#535AF1"/>
</g>
</svg>
