<svg width="37" height="32" viewBox="0 0 37 32" fill="none" xmlns="http://www.w3.org/2000/svg">
<path d="M3.24967 31.6086C2.55523 31.8864 1.89551 31.8253 1.27051 31.4253C0.645508 31.0267 0.333008 30.4454 0.333008 29.6815V21.9211C0.333008 21.435 0.471897 21.001 0.749675 20.619C1.02745 20.2371 1.4094 19.994 1.89551 19.8899L16.9997 16.1399L1.89551 12.3899C1.4094 12.2857 1.02745 12.0426 0.749675 11.6607C0.471897 11.2788 0.333008 10.8447 0.333008 10.3586V2.5982C0.333008 1.83431 0.645508 1.25237 1.27051 0.852366C1.89551 0.453755 2.55523 0.393338 3.24967 0.671115L35.333 14.2128C36.2011 14.5947 36.6351 15.2371 36.6351 16.1399C36.6351 17.0426 36.2011 17.685 35.333 18.0669L3.24967 31.6086Z" fill="white"/>
</svg>
